<svg width="66" height="66" viewBox="0 0 66 66" fill="none" xmlns="http://www.w3.org/2000/svg">
<rect x="1.5" y="1.5" width="63" height="63" rx="5.5" fill="white" stroke="#60EE5D" stroke-width="3"/>
<path d="M37.8756 34.834V50.608C37.8756 53.05 37.1826 54.931 35.7966 56.251C34.4326 57.571 32.5846 58.231 30.2526 58.231C27.8106 58.231 25.8526 57.538 24.3786 56.152C22.9046 54.766 22.1676 52.797 22.1676 50.245H27.7776C27.7776 51.213 27.9756 51.95 28.3716 52.456C28.7676 52.94 29.3396 53.182 30.0876 53.182C30.7696 53.182 31.2976 52.962 31.6716 52.522C32.0456 52.082 32.2326 51.444 32.2326 50.608V34.834H37.8756ZM50.8157 58.231C49.1217 58.231 47.6037 57.956 46.2617 57.406C44.9197 56.856 43.8417 56.042 43.0277 54.964C42.2357 53.886 41.8177 52.588 41.7737 51.07H47.7797C47.8677 51.928 48.1647 52.588 48.6707 53.05C49.1767 53.49 49.8367 53.71 50.6507 53.71C51.4867 53.71 52.1467 53.523 52.6307 53.149C53.1147 52.753 53.3567 52.214 53.3567 51.532C53.3567 50.96 53.1587 50.487 52.7627 50.113C52.3887 49.739 51.9157 49.431 51.3437 49.189C50.7937 48.947 50.0017 48.672 48.9677 48.364C47.4717 47.902 46.2507 47.44 45.3047 46.978C44.3587 46.516 43.5447 45.834 42.8627 44.932C42.1807 44.03 41.8397 42.853 41.8397 41.401C41.8397 39.245 42.6207 37.562 44.1827 36.352C45.7447 35.12 47.7797 34.504 50.2877 34.504C52.8397 34.504 54.8967 35.12 56.4587 36.352C58.0207 37.562 58.8567 39.256 58.9667 41.434H52.8617C52.8177 40.686 52.5427 40.103 52.0367 39.685C51.5307 39.245 50.8817 39.025 50.0897 39.025C49.4077 39.025 48.8577 39.212 48.4397 39.586C48.0217 39.938 47.8127 40.455 47.8127 41.137C47.8127 41.885 48.1647 42.468 48.8687 42.886C49.5727 43.304 50.6727 43.755 52.1687 44.239C53.6647 44.745 54.8747 45.229 55.7987 45.691C56.7447 46.153 57.5587 46.824 58.2407 47.704C58.9227 48.584 59.2637 49.717 59.2637 51.103C59.2637 52.423 58.9227 53.622 58.2407 54.7C57.5807 55.778 56.6127 56.636 55.3367 57.274C54.0607 57.912 52.5537 58.231 50.8157 58.231Z" fill="#F540E3"/>
</svg>
