<svg width="216" height="35" viewBox="0 0 216 35" fill="none" xmlns="http://www.w3.org/2000/svg">
<path d="M3.62 5.54C2.806 5.54 2.124 5.287 1.574 4.781C1.046 4.253 0.782 3.604 0.782 2.834C0.782 2.064 1.046 1.426 1.574 0.919998C2.124 0.391999 2.806 0.127999 3.62 0.127999C4.434 0.127999 5.105 0.391999 5.633 0.919998C6.183 1.426 6.458 2.064 6.458 2.834C6.458 3.604 6.183 4.253 5.633 4.781C5.105 5.287 4.434 5.54 3.62 5.54ZM5.897 7.718V26H1.277V7.718H5.897ZM33.1656 7.454C35.4096 7.454 37.2136 8.147 38.5776 9.533C39.9636 10.897 40.6566 12.811 40.6566 15.275V26H36.0366V15.902C36.0366 14.472 35.6736 13.383 34.9476 12.635C34.2216 11.865 33.2316 11.48 31.9776 11.48C30.7236 11.48 29.7226 11.865 28.9746 12.635C28.2486 13.383 27.8856 14.472 27.8856 15.902V26H23.2656V15.902C23.2656 14.472 22.9026 13.383 22.1766 12.635C21.4506 11.865 20.4606 11.48 19.2066 11.48C17.9306 11.48 16.9186 11.865 16.1706 12.635C15.4446 13.383 15.0816 14.472 15.0816 15.902V26H10.4616V7.718H15.0816V9.929C15.6756 9.159 16.4346 8.554 17.3586 8.114C18.3046 7.674 19.3386 7.454 20.4606 7.454C21.8906 7.454 23.1666 7.762 24.2886 8.378C25.4106 8.972 26.2796 9.83 26.8956 10.952C27.4896 9.896 28.3476 9.049 29.4696 8.411C30.6136 7.773 31.8456 7.454 33.1656 7.454ZM49.6607 10.358C50.2547 9.522 51.0687 8.829 52.1027 8.279C53.1587 7.707 54.3577 7.421 55.6997 7.421C57.2617 7.421 58.6697 7.806 59.9237 8.576C61.1997 9.346 62.2007 10.446 62.9267 11.876C63.6747 13.284 64.0487 14.923 64.0487 16.793C64.0487 18.663 63.6747 20.324 62.9267 21.776C62.2007 23.206 61.1997 24.317 59.9237 25.109C58.6697 25.901 57.2617 26.297 55.6997 26.297C54.3577 26.297 53.1697 26.022 52.1357 25.472C51.1237 24.922 50.2987 24.229 49.6607 23.393V34.712H45.0407V7.718H49.6607V10.358ZM59.3297 16.793C59.3297 15.693 59.0987 14.747 58.6367 13.955C58.1967 13.141 57.6027 12.525 56.8547 12.107C56.1287 11.689 55.3367 11.48 54.4787 11.48C53.6427 11.48 52.8507 11.7 52.1027 12.14C51.3767 12.558 50.7827 13.174 50.3207 13.988C49.8807 14.802 49.6607 15.759 49.6607 16.859C49.6607 17.959 49.8807 18.916 50.3207 19.73C50.7827 20.544 51.3767 21.171 52.1027 21.611C52.8507 22.029 53.6427 22.238 54.4787 22.238C55.3367 22.238 56.1287 22.018 56.8547 21.578C57.6027 21.138 58.1967 20.511 58.6367 19.697C59.0987 18.883 59.3297 17.915 59.3297 16.793ZM75.5239 26.297C73.7639 26.297 72.1799 25.912 70.7719 25.142C69.3639 24.35 68.2529 23.239 67.4389 21.809C66.6469 20.379 66.2509 18.729 66.2509 16.859C66.2509 14.989 66.6579 13.339 67.4719 11.909C68.3079 10.479 69.4409 9.379 70.8709 8.609C72.3009 7.817 73.8959 7.421 75.6559 7.421C77.4159 7.421 79.0109 7.817 80.4409 8.609C81.8709 9.379 82.9929 10.479 83.8069 11.909C84.6429 13.339 85.0609 14.989 85.0609 16.859C85.0609 18.729 84.6319 20.379 83.7739 21.809C82.9379 23.239 81.7939 24.35 80.3419 25.142C78.9119 25.912 77.3059 26.297 75.5239 26.297ZM75.5239 22.271C76.3599 22.271 77.1409 22.073 77.8669 21.677C78.6149 21.259 79.2089 20.643 79.6489 19.829C80.0889 19.015 80.3089 18.025 80.3089 16.859C80.3089 15.121 79.8469 13.79 78.9229 12.866C78.0209 11.92 76.9099 11.447 75.5899 11.447C74.2699 11.447 73.1589 11.92 72.2569 12.866C71.3769 13.79 70.9369 15.121 70.9369 16.859C70.9369 18.597 71.3659 19.939 72.2239 20.885C73.1039 21.809 74.2039 22.271 75.5239 22.271ZM93.0699 10.556C93.6639 9.588 94.4339 8.829 95.3799 8.279C96.3479 7.729 97.4479 7.454 98.6799 7.454V12.305H97.4589C96.0069 12.305 94.9069 12.646 94.1589 13.328C93.4329 14.01 93.0699 15.198 93.0699 16.892V26H88.4499V7.718H93.0699V10.556ZM107.171 11.513V20.357C107.171 20.973 107.314 21.424 107.6 21.71C107.908 21.974 108.414 22.106 109.118 22.106H111.263V26H108.359C104.465 26 102.518 24.108 102.518 20.324V11.513H100.34V7.718H102.518V3.197H107.171V7.718H111.263V11.513H107.171Z" fill="#F540E3"/>
<path d="M134.329 26L129.247 17.024H127.069V26H122.449V2.966H131.095C132.877 2.966 134.395 3.285 135.649 3.923C136.903 4.539 137.838 5.386 138.454 6.464C139.092 7.52 139.411 8.708 139.411 10.028C139.411 11.546 138.971 12.921 138.091 14.153C137.211 15.363 135.902 16.199 134.164 16.661L139.675 26H134.329ZM127.069 13.559H130.93C132.184 13.559 133.119 13.262 133.735 12.668C134.351 12.052 134.659 11.205 134.659 10.127C134.659 9.071 134.351 8.257 133.735 7.685C133.119 7.091 132.184 6.794 130.93 6.794H127.069V13.559ZM160.585 16.463C160.585 17.123 160.541 17.717 160.453 18.245H147.088C147.198 19.565 147.66 20.599 148.474 21.347C149.288 22.095 150.289 22.469 151.477 22.469C153.193 22.469 154.414 21.732 155.14 20.258H160.123C159.595 22.018 158.583 23.47 157.087 24.614C155.591 25.736 153.754 26.297 151.576 26.297C149.816 26.297 148.232 25.912 146.824 25.142C145.438 24.35 144.349 23.239 143.557 21.809C142.787 20.379 142.401 18.729 142.401 16.859C142.401 14.967 142.787 13.306 143.557 11.876C144.327 10.446 145.405 9.346 146.791 8.576C148.177 7.806 149.772 7.421 151.576 7.421C153.314 7.421 154.865 7.795 156.229 8.543C157.615 9.291 158.682 10.358 159.43 11.744C160.2 13.108 160.585 14.681 160.585 16.463ZM155.8 15.143C155.778 13.955 155.349 13.009 154.513 12.305C153.677 11.579 152.654 11.216 151.444 11.216C150.3 11.216 149.332 11.568 148.54 12.272C147.77 12.954 147.297 13.911 147.121 15.143H155.8ZM162.769 16.793C162.769 14.945 163.132 13.306 163.858 11.876C164.606 10.446 165.607 9.346 166.861 8.576C168.137 7.806 169.556 7.421 171.118 7.421C172.482 7.421 173.67 7.696 174.682 8.246C175.716 8.796 176.541 9.489 177.157 10.325V7.718H181.81V26H177.157V23.327C176.563 24.185 175.738 24.9 174.682 25.472C173.648 26.022 172.449 26.297 171.085 26.297C169.545 26.297 168.137 25.901 166.861 25.109C165.607 24.317 164.606 23.206 163.858 21.776C163.132 20.324 162.769 18.663 162.769 16.793ZM177.157 16.859C177.157 15.737 176.937 14.78 176.497 13.988C176.057 13.174 175.463 12.558 174.715 12.14C173.967 11.7 173.164 11.48 172.306 11.48C171.448 11.48 170.656 11.689 169.93 12.107C169.204 12.525 168.61 13.141 168.148 13.955C167.708 14.747 167.488 15.693 167.488 16.793C167.488 17.893 167.708 18.861 168.148 19.697C168.61 20.511 169.204 21.138 169.93 21.578C170.678 22.018 171.47 22.238 172.306 22.238C173.164 22.238 173.967 22.029 174.715 21.611C175.463 21.171 176.057 20.555 176.497 19.763C176.937 18.949 177.157 17.981 177.157 16.859ZM185.134 16.859C185.134 14.967 185.519 13.317 186.289 11.909C187.059 10.479 188.126 9.379 189.49 8.609C190.854 7.817 192.416 7.421 194.176 7.421C196.442 7.421 198.312 7.993 199.786 9.137C201.282 10.259 202.283 11.843 202.789 13.889H197.806C197.542 13.097 197.091 12.481 196.453 12.041C195.837 11.579 195.067 11.348 194.143 11.348C192.823 11.348 191.778 11.832 191.008 12.8C190.238 13.746 189.853 15.099 189.853 16.859C189.853 18.597 190.238 19.95 191.008 20.918C191.778 21.864 192.823 22.337 194.143 22.337C196.013 22.337 197.234 21.501 197.806 19.829H202.789C202.283 21.809 201.282 23.382 199.786 24.548C198.29 25.714 196.42 26.297 194.176 26.297C192.416 26.297 190.854 25.912 189.49 25.142C188.126 24.35 187.059 23.25 186.289 21.842C185.519 20.412 185.134 18.751 185.134 16.859ZM211.552 11.513V20.357C211.552 20.973 211.695 21.424 211.981 21.71C212.289 21.974 212.795 22.106 213.499 22.106H215.644V26H212.74C208.846 26 206.899 24.108 206.899 20.324V11.513H204.721V7.718H206.899V3.197H211.552V7.718H215.644V11.513H211.552Z" fill="#60EE5D"/>
</svg>
