<svg width="317" height="40" viewBox="0 0 317 40" fill="none" xmlns="http://www.w3.org/2000/svg">
<path d="M4.897 15.556C5.491 14.588 6.261 13.829 7.207 13.279C8.175 12.729 9.275 12.454 10.507 12.454V17.305H9.286C7.834 17.305 6.734 17.646 5.986 18.328C5.26 19.01 4.897 20.198 4.897 21.892V31H0.277V12.718H4.897V15.556ZM30.6138 21.463C30.6138 22.123 30.5698 22.717 30.4818 23.245H17.1168C17.2268 24.565 17.6888 25.599 18.5028 26.347C19.3168 27.095 20.3178 27.469 21.5058 27.469C23.2218 27.469 24.4428 26.732 25.1688 25.258H30.1518C29.6238 27.018 28.6118 28.47 27.1158 29.614C25.6198 30.736 23.7828 31.297 21.6048 31.297C19.8448 31.297 18.2608 30.912 16.8528 30.142C15.4668 29.35 14.3778 28.239 13.5858 26.809C12.8158 25.379 12.4308 23.729 12.4308 21.859C12.4308 19.967 12.8158 18.306 13.5858 16.876C14.3558 15.446 15.4338 14.346 16.8198 13.576C18.2058 12.806 19.8008 12.421 21.6048 12.421C23.3428 12.421 24.8938 12.795 26.2578 13.543C27.6438 14.291 28.7108 15.358 29.4588 16.744C30.2288 18.108 30.6138 19.681 30.6138 21.463ZM25.8288 20.143C25.8068 18.955 25.3778 18.009 24.5418 17.305C23.7058 16.579 22.6828 16.216 21.4728 16.216C20.3288 16.216 19.3608 16.568 18.5688 17.272C17.7988 17.954 17.3258 18.911 17.1498 20.143H25.8288ZM32.798 21.826C32.798 20 33.172 18.383 33.92 16.975C34.69 15.545 35.724 14.434 37.022 13.642C38.32 12.85 39.75 12.454 41.312 12.454C42.61 12.454 43.754 12.707 44.744 13.213C45.756 13.697 46.57 14.324 47.186 15.094V12.718H51.839V39.712H47.186V28.492C46.57 29.284 45.745 29.944 44.711 30.472C43.677 31 42.511 31.264 41.213 31.264C39.673 31.264 38.254 30.868 36.956 30.076C35.68 29.262 34.668 28.14 33.92 26.71C33.172 25.28 32.798 23.652 32.798 21.826ZM47.186 21.859C47.186 20.737 46.955 19.769 46.493 18.955C46.031 18.141 45.426 17.525 44.678 17.107C43.952 16.689 43.171 16.48 42.335 16.48C41.521 16.48 40.74 16.689 39.992 17.107C39.266 17.525 38.672 18.141 38.21 18.955C37.748 19.747 37.517 20.704 37.517 21.826C37.517 22.948 37.748 23.927 38.21 24.763C38.672 25.577 39.266 26.193 39.992 26.611C40.74 27.029 41.521 27.238 42.335 27.238C43.171 27.238 43.952 27.029 44.678 26.611C45.426 26.193 46.031 25.577 46.493 24.763C46.955 23.949 47.186 22.981 47.186 21.859ZM73.6102 12.718V31H68.9572V28.69C68.3632 29.482 67.5822 30.109 66.6142 30.571C65.6682 31.011 64.6342 31.231 63.5122 31.231C62.0822 31.231 60.8172 30.934 59.7172 30.34C58.6172 29.724 57.7482 28.833 57.1102 27.667C56.4942 26.479 56.1862 25.071 56.1862 23.443V12.718H60.8062V22.783C60.8062 24.235 61.1692 25.357 61.8952 26.149C62.6212 26.919 63.6112 27.304 64.8652 27.304C66.1412 27.304 67.1422 26.919 67.8682 26.149C68.5942 25.357 68.9572 24.235 68.9572 22.783V12.718H73.6102ZM80.5116 10.54C79.6976 10.54 79.0156 10.287 78.4656 9.781C77.9376 9.253 77.6736 8.604 77.6736 7.834C77.6736 7.064 77.9376 6.426 78.4656 5.92C79.0156 5.392 79.6976 5.128 80.5116 5.128C81.3256 5.128 81.9966 5.392 82.5246 5.92C83.0746 6.426 83.3496 7.064 83.3496 7.834C83.3496 8.604 83.0746 9.253 82.5246 9.781C81.9966 10.287 81.3256 10.54 80.5116 10.54ZM82.7886 12.718V31H78.1686V12.718H82.7886ZM91.9732 15.556C92.5672 14.588 93.3372 13.829 94.2832 13.279C95.2512 12.729 96.3512 12.454 97.5832 12.454V17.305H96.3622C94.9102 17.305 93.8102 17.646 93.0622 18.328C92.3362 19.01 91.9732 20.198 91.9732 21.892V31H87.3532V12.718H91.9732V15.556ZM117.69 21.463C117.69 22.123 117.646 22.717 117.558 23.245H104.193C104.303 24.565 104.765 25.599 105.579 26.347C106.393 27.095 107.394 27.469 108.582 27.469C110.298 27.469 111.519 26.732 112.245 25.258H117.228C116.7 27.018 115.688 28.47 114.192 29.614C112.696 30.736 110.859 31.297 108.681 31.297C106.921 31.297 105.337 30.912 103.929 30.142C102.543 29.35 101.454 28.239 100.662 26.809C99.892 25.379 99.507 23.729 99.507 21.859C99.507 19.967 99.892 18.306 100.662 16.876C101.432 15.446 102.51 14.346 103.896 13.576C105.282 12.806 106.877 12.421 108.681 12.421C110.419 12.421 111.97 12.795 113.334 13.543C114.72 14.291 115.787 15.358 116.535 16.744C117.305 18.108 117.69 19.681 117.69 21.463ZM112.905 20.143C112.883 18.955 112.454 18.009 111.618 17.305C110.782 16.579 109.759 16.216 108.549 16.216C107.405 16.216 106.437 16.568 105.645 17.272C104.875 17.954 104.402 18.911 104.226 20.143H112.905Z" fill="#F540E3"/>
<path d="M136.911 37.501C134.777 35.433 133.116 32.793 131.928 29.581C130.762 26.369 130.179 22.926 130.179 19.252C130.179 15.49 130.795 11.959 132.027 8.659C133.259 5.337 135.052 2.62 137.406 0.507999H142.059V0.936998C139.639 3.247 137.791 6.019 136.515 9.253C135.261 12.487 134.634 15.82 134.634 19.252C134.634 22.596 135.228 25.83 136.416 28.954C137.626 32.056 139.342 34.751 141.564 37.039V37.501H136.911ZM148.572 16.282H143.688L147.252 7.966H150.453L148.572 16.282ZM155.238 16.282H150.354L153.918 7.966H157.119L155.238 16.282ZM291.82 7.966H296.671L293.107 16.282H289.939L291.82 7.966ZM298.486 7.966H303.337L299.773 16.282H296.605L298.486 7.966ZM305.435 37.501V37.039C307.657 34.751 309.362 32.056 310.55 28.954C311.76 25.83 312.365 22.596 312.365 19.252C312.365 15.82 311.727 12.487 310.451 9.253C309.197 6.019 307.36 3.247 304.94 0.936998V0.507999H309.593C311.947 2.62 313.74 5.337 314.972 8.659C316.204 11.959 316.82 15.49 316.82 19.252C316.82 22.926 316.226 26.369 315.038 29.581C313.872 32.793 312.222 35.433 310.088 37.501H305.435Z" fill="#60EE5D"/>
<path d="M177.664 21.463C177.664 22.123 177.62 22.717 177.532 23.245H164.167C164.277 24.565 164.739 25.599 165.553 26.347C166.367 27.095 167.368 27.469 168.556 27.469C170.272 27.469 171.493 26.732 172.219 25.258H177.202C176.674 27.018 175.662 28.47 174.166 29.614C172.67 30.736 170.833 31.297 168.655 31.297C166.895 31.297 165.311 30.912 163.903 30.142C162.517 29.35 161.428 28.239 160.636 26.809C159.866 25.379 159.481 23.729 159.481 21.859C159.481 19.967 159.866 18.306 160.636 16.876C161.406 15.446 162.484 14.346 163.87 13.576C165.256 12.806 166.851 12.421 168.655 12.421C170.393 12.421 171.944 12.795 173.308 13.543C174.694 14.291 175.761 15.358 176.509 16.744C177.279 18.108 177.664 19.681 177.664 21.463ZM172.879 20.143C172.857 18.955 172.428 18.009 171.592 17.305C170.756 16.579 169.733 16.216 168.523 16.216C167.379 16.216 166.411 16.568 165.619 17.272C164.849 17.954 164.376 18.911 164.2 20.143H172.879ZM191.134 31L187.372 25.324L184.039 31H179.089L185.062 21.826L179.023 12.718H184.237L187.966 18.361L191.332 12.718H196.282L190.276 21.826L196.348 31H191.134ZM203.477 15.358C204.071 14.522 204.885 13.829 205.919 13.279C206.975 12.707 208.174 12.421 209.516 12.421C211.078 12.421 212.486 12.806 213.74 13.576C215.016 14.346 216.017 15.446 216.743 16.876C217.491 18.284 217.865 19.923 217.865 21.793C217.865 23.663 217.491 25.324 216.743 26.776C216.017 28.206 215.016 29.317 213.74 30.109C212.486 30.901 211.078 31.297 209.516 31.297C208.174 31.297 206.986 31.022 205.952 30.472C204.94 29.922 204.115 29.229 203.477 28.393V39.712H198.857V12.718H203.477V15.358ZM213.146 21.793C213.146 20.693 212.915 19.747 212.453 18.955C212.013 18.141 211.419 17.525 210.671 17.107C209.945 16.689 209.153 16.48 208.295 16.48C207.459 16.48 206.667 16.7 205.919 17.14C205.193 17.558 204.599 18.174 204.137 18.988C203.697 19.802 203.477 20.759 203.477 21.859C203.477 22.959 203.697 23.916 204.137 24.73C204.599 25.544 205.193 26.171 205.919 26.611C206.667 27.029 207.459 27.238 208.295 27.238C209.153 27.238 209.945 27.018 210.671 26.578C211.419 26.138 212.013 25.511 212.453 24.697C212.915 23.883 213.146 22.915 213.146 21.793ZM225.842 15.556C226.436 14.588 227.206 13.829 228.152 13.279C229.12 12.729 230.22 12.454 231.452 12.454V17.305H230.231C228.779 17.305 227.679 17.646 226.931 18.328C226.205 19.01 225.842 20.198 225.842 21.892V31H221.222V12.718H225.842V15.556ZM251.559 21.463C251.559 22.123 251.515 22.717 251.427 23.245H238.062C238.172 24.565 238.634 25.599 239.448 26.347C240.262 27.095 241.263 27.469 242.451 27.469C244.167 27.469 245.388 26.732 246.114 25.258H251.097C250.569 27.018 249.557 28.47 248.061 29.614C246.565 30.736 244.728 31.297 242.55 31.297C240.79 31.297 239.206 30.912 237.798 30.142C236.412 29.35 235.323 28.239 234.531 26.809C233.761 25.379 233.376 23.729 233.376 21.859C233.376 19.967 233.761 18.306 234.531 16.876C235.301 15.446 236.379 14.346 237.765 13.576C239.151 12.806 240.746 12.421 242.55 12.421C244.288 12.421 245.839 12.795 247.203 13.543C248.589 14.291 249.656 15.358 250.404 16.744C251.174 18.108 251.559 19.681 251.559 21.463ZM246.774 20.143C246.752 18.955 246.323 18.009 245.487 17.305C244.651 16.579 243.628 16.216 242.418 16.216C241.274 16.216 240.306 16.568 239.514 17.272C238.744 17.954 238.271 18.911 238.095 20.143H246.774ZM261.927 31.297C260.431 31.297 259.089 31.033 257.901 30.505C256.713 29.955 255.767 29.218 255.063 28.294C254.381 27.37 254.007 26.347 253.941 25.225H258.594C258.682 25.929 259.023 26.512 259.617 26.974C260.233 27.436 260.992 27.667 261.894 27.667C262.774 27.667 263.456 27.491 263.94 27.139C264.446 26.787 264.699 26.336 264.699 25.786C264.699 25.192 264.391 24.752 263.775 24.466C263.181 24.158 262.224 23.828 260.904 23.476C259.54 23.146 258.418 22.805 257.538 22.453C256.68 22.101 255.932 21.562 255.294 20.836C254.678 20.11 254.37 19.131 254.37 17.899C254.37 16.887 254.656 15.963 255.228 15.127C255.822 14.291 256.658 13.631 257.736 13.147C258.836 12.663 260.123 12.421 261.597 12.421C263.775 12.421 265.513 12.971 266.811 14.071C268.109 15.149 268.824 16.612 268.956 18.46H264.534C264.468 17.734 264.16 17.162 263.61 16.744C263.082 16.304 262.367 16.084 261.465 16.084C260.629 16.084 259.98 16.238 259.518 16.546C259.078 16.854 258.858 17.283 258.858 17.833C258.858 18.449 259.166 18.922 259.782 19.252C260.398 19.56 261.355 19.879 262.653 20.209C263.973 20.539 265.062 20.88 265.92 21.232C266.778 21.584 267.515 22.134 268.131 22.882C268.769 23.608 269.099 24.576 269.121 25.786C269.121 26.842 268.824 27.788 268.23 28.624C267.658 29.46 266.822 30.12 265.722 30.604C264.644 31.066 263.379 31.297 261.927 31.297ZM279.91 31.297C278.414 31.297 277.072 31.033 275.884 30.505C274.696 29.955 273.75 29.218 273.046 28.294C272.364 27.37 271.99 26.347 271.924 25.225H276.577C276.665 25.929 277.006 26.512 277.6 26.974C278.216 27.436 278.975 27.667 279.877 27.667C280.757 27.667 281.439 27.491 281.923 27.139C282.429 26.787 282.682 26.336 282.682 25.786C282.682 25.192 282.374 24.752 281.758 24.466C281.164 24.158 280.207 23.828 278.887 23.476C277.523 23.146 276.401 22.805 275.521 22.453C274.663 22.101 273.915 21.562 273.277 20.836C272.661 20.11 272.353 19.131 272.353 17.899C272.353 16.887 272.639 15.963 273.211 15.127C273.805 14.291 274.641 13.631 275.719 13.147C276.819 12.663 278.106 12.421 279.58 12.421C281.758 12.421 283.496 12.971 284.794 14.071C286.092 15.149 286.807 16.612 286.939 18.46H282.517C282.451 17.734 282.143 17.162 281.593 16.744C281.065 16.304 280.35 16.084 279.448 16.084C278.612 16.084 277.963 16.238 277.501 16.546C277.061 16.854 276.841 17.283 276.841 17.833C276.841 18.449 277.149 18.922 277.765 19.252C278.381 19.56 279.338 19.879 280.636 20.209C281.956 20.539 283.045 20.88 283.903 21.232C284.761 21.584 285.498 22.134 286.114 22.882C286.752 23.608 287.082 24.576 287.104 25.786C287.104 26.842 286.807 27.788 286.213 28.624C285.641 29.46 284.805 30.12 283.705 30.604C282.627 31.066 281.362 31.297 279.91 31.297Z" fill="#4052F0"/>
</svg>
