<svg width="24" height="24" viewBox="0 0 24 24" fill="none" xmlns="http://www.w3.org/2000/svg">
<path d="M12 1.5C7.395 1.5 2.5 2.727 2.5 5V19C2.5 21.273 7.395 22.5 12 22.5C16.605 22.5 21.5 21.273 21.5 19V5C21.5 2.727 16.605 1.5 12 1.5ZM12 17.5C6.733 17.5 3.5 16.044 3.5 15V13.633C5.166 14.854 8.66 15.5 12 15.5C15.34 15.5 18.834 14.854 20.5 13.633V15C20.5 16.044 17.267 17.5 12 17.5ZM12 13.5C6.733 13.5 3.5 12.044 3.5 11V9.632C5.166 10.854 8.66 11.5 12 11.5C15.34 11.5 18.834 10.854 20.5 9.632V11C20.5 12.044 17.267 13.5 12 13.5ZM20.5 19C20.5 20.044 17.267 21.5 12 21.5C6.733 21.5 3.5 20.044 3.5 19V17.633C5.166 18.854 8.66 19.5 12 19.5C15.34 19.5 18.834 18.854 20.5 17.633V19ZM12 9.5C6.733 9.5 3.5 8.044 3.5 7V5C3.5 3.956 6.733 2.5 12 2.5C17.267 2.5 20.5 3.956 20.5 5V7C20.5 8.044 17.267 9.5 12 9.5Z" fill="#F540E3"/>
</svg>
